# xmcd CD database file generated by OrangeCD 6.3
#
# Track frame offsets:
#	150
#	22377
#	36028
#	51090
#	68344
#	82867
#	96143
#	112220
#	129588
#	146777
#	159656
#	177057
#
# Disc length: 2552 seconds
#
# Revision: 0
# Processed by: cddbd v1.5.2PL0 Copyright (c) Steve Scherf et al.
# Submitted via: OrangeCD 6.3
#
DISCID=a009f60c
DTITLE=Merv and Maria - Life Is Just A Journey
DYEAR=1900
DGENRE=
TTITLE0=Life Is Just A Journey
TTITLE1=Gentle Warm And Kind
TTITLE2=It'll Be To Soon
TTITLE3=Mr Lonely
TTITLE4=Plan For Your Tomorrows
TTITLE5=Everything You Need
TTITLE6=Proud To Be Her Man
TTITLE7=Two's Compagny
TTITLE8=I'll Sing This Song
TTITLE9=Lord Won't You
TTITLE10=Then And Now
TTITLE11=I'n Under Your Spell
EXTD=
EXTT0=
EXTT1=
EXTT2=
EXTT3=
EXTT4=
EXTT5=
EXTT6=
EXTT7=
EXTT8=
EXTT9=
EXTT10=
EXTT11=
PLAYORDER=
